<?xml version="1.0" standalone="no"?>
<!DOCTYPE svg PUBLIC "-//W3C//DTD SVG 20010904//EN"
 "http://www.w3.org/TR/2001/REC-SVG-20010904/DTD/svg10.dtd">
<svg version="1.0" xmlns="http://www.w3.org/2000/svg"
 width="500.000000pt" height="500.000000pt" viewBox="0 0 500.000000 500.000000"
 preserveAspectRatio="xMidYMid meet">

<g transform="translate(0.000000,500.000000) scale(0.100000,-0.100000)"
fill="#000000" stroke="none">
<path d="M798 4383 c-9 -10 -29 -54 -43 -98 -22 -64 -28 -103 -31 -202 -2 -68
-7 -123 -10 -124 -3 0 -39 40 -80 90 -81 98 -105 110 -143 72 -28 -28 -35 -78
-28 -195 5 -92 4 -103 -15 -126 -18 -22 -19 -34 -14 -96 6 -60 23 -136 53
-226 4 -13 0 -18 -14 -18 -28 0 -53 -31 -53 -66 0 -54 31 -157 65 -223 19 -35
33 -66 31 -69 -2 -2 -13 2 -25 10 -18 11 -24 10 -42 -9 -28 -28 -21 -66 33
-174 27 -56 59 -99 99 -139 33 -31 59 -59 59 -62 0 -3 -9 -8 -20 -11 -31 -8
-25 -47 19 -113 43 -67 87 -110 148 -148 24 -14 49 -41 59 -61 17 -36 102
-113 156 -141 22 -11 28 -22 28 -46 0 -50 79 -114 193 -157 25 -10 28 -15 22
-40 -5 -25 -1 -33 30 -58 26 -21 54 -66 109 -178 199 -404 523 -785 910 -1069
136 -100 257 -176 282 -176 44 0 274 153 454 303 297 247 624 665 778 997 26
56 58 108 78 126 29 27 33 36 28 63 -5 23 -3 31 7 31 29 0 120 50 163 91 34
31 46 49 46 70 0 23 7 32 40 49 55 28 116 85 146 135 14 25 44 55 73 72 50 31
146 138 162 180 15 39 11 64 -11 70 -29 8 -26 14 26 57 58 49 116 138 144 222
31 92 12 142 -42 113 -17 -9 -20 -9 -15 2 35 84 68 179 78 228 15 71 4 107
-36 117 -19 5 -24 11 -20 23 20 49 55 210 55 253 0 39 -5 54 -25 74 -23 23
-24 27 -14 82 13 69 7 177 -12 218 -12 24 -20 29 -49 29 -32 0 -41 -8 -110
-94 l-75 -94 -6 119 c-10 189 -56 329 -109 329 -20 0 -32 -16 -79 -111 -93
-184 -248 -403 -358 -505 l-49 -46 -110 -7 c-67 -4 -147 -2 -204 5 -252 30
-563 170 -860 388 -41 30 -79 54 -85 54 -5 0 -71 -40 -145 -90 -238 -158 -401
-243 -593 -307 -137 -46 -248 -60 -406 -51 l-126 6 -78 82 c-107 113 -228 286
-312 447 -73 142 -93 161 -127 123z m72 -240 c141 -263 401 -550 611 -674 65
-39 67 -41 73 -91 4 -27 5 -52 3 -54 -2 -2 -37 16 -78 40 l-74 44 -3 -44 c-2
-24 -7 -44 -12 -44 -4 0 -21 11 -36 24 -137 115 -183 157 -275 253 -115 120
-197 234 -231 326 -11 32 -24 53 -28 48 -9 -15 -12 132 -4 196 3 29 8 53 9 53
2 0 22 -35 45 -77z m3474 15 c10 -87 7 -125 -15 -190 -45 -130 -115 -233 -258
-382 -98 -101 -282 -266 -298 -266 -7 0 -13 18 -15 44 l-3 45 -70 -44 c-38
-24 -71 -43 -73 -41 -1 2 0 26 4 54 l6 50 97 66 c53 36 138 104 190 152 144
135 327 374 390 512 14 28 28 52 31 52 4 0 10 -24 14 -52z m-1589 -230 c112
-76 313 -181 437 -227 129 -49 245 -72 404 -80 l121 -6 -95 -67 c-110 -79
-117 -80 -267 -44 -253 62 -447 157 -689 338 -43 33 -83 57 -90 54 -6 -3 -38
-26 -71 -51 -276 -205 -563 -334 -800 -360 -60 -7 -60 -7 -135 44 -141 96
-142 87 11 94 160 8 273 32 411 87 181 73 432 219 561 326 l28 24 47 -39 c26
-21 83 -63 127 -93z m-2162 20 c136 -177 330 -372 502 -504 92 -70 178 -149
145 -133 -20 10 -16 2 19 -35 30 -34 40 -51 33 -58 -16 -16 -61 6 -212 106
-172 113 -295 211 -358 284 -54 63 -142 189 -142 204 0 5 -4 7 -9 4 -5 -4 -14
17 -20 44 -11 52 -15 158 -6 148 3 -3 24 -30 48 -60z m4018 -48 c-6 -39 -18
-78 -27 -88 -8 -9 -38 -53 -66 -96 -81 -128 -214 -249 -444 -404 -178 -120
-260 -137 -161 -33 23 25 34 39 25 32 -10 -7 -21 -11 -26 -9 -6 1 31 37 80 78
320 266 435 381 579 575 38 52 44 57 47 37 2 -12 -1 -54 -7 -92z m-1972 -215
c25 -19 56 -45 68 -58 13 -14 40 -32 60 -42 21 -10 45 -23 53 -31 55 -48 347
-177 447 -199 42 -9 49 -21 21 -36 -50 -27 -155 -122 -183 -166 -24 -39 -31
-61 -33 -119 -3 -60 0 -81 23 -135 74 -173 86 -219 82 -310 -6 -115 -39 -188
-138 -303 -4 -5 -30 11 -58 36 -46 41 -140 94 -201 113 -44 13 -50 24 -50 94
l1 66 27 -31 c42 -49 60 -54 199 -54 169 0 168 0 167 117 -2 226 -118 391
-325 463 l-37 13 -4 74 c-7 104 -11 107 -154 111 -177 6 -194 -3 -194 -101 0
-34 -4 -67 -8 -74 -4 -7 -27 -19 -51 -28 -118 -41 -207 -118 -262 -227 -126
-249 -37 -541 198 -652 43 -20 89 -43 103 -49 22 -11 25 -20 27 -67 2 -30 0
-66 -3 -80 -6 -25 -6 -25 -19 7 -18 41 -42 48 -178 48 -59 0 -107 1 -107 2 0
1 9 25 20 53 34 86 28 115 -40 206 -129 170 -142 314 -46 516 62 132 69 214
26 297 -20 40 -102 121 -169 169 -51 36 -58 29 89 77 162 53 303 128 498 266
53 38 99 69 101 69 2 0 24 -16 50 -35z m-1784 -316 c66 -47 158 -109 205 -137
93 -56 159 -107 125 -95 -11 3 -29 13 -40 22 -11 8 -5 0 13 -20 31 -34 41 -59
23 -59 -24 0 -190 75 -277 125 -125 72 -150 91 -253 192 -86 86 -104 120 -125
237 -7 38 -7 38 101 -71 63 -63 158 -144 228 -194z m3759 188 c-26 -78 -31
-86 -123 -178 -102 -100 -203 -170 -367 -252 -49 -24 -104 -48 -121 -52 -28
-6 -33 -4 -33 13 0 11 17 31 40 47 48 34 52 42 8 18 -40 -21 -72 -28 -46 -10
71 49 125 85 203 135 156 101 257 182 360 288 62 63 101 97 103 88 2 -8 -9
-51 -24 -97z m-2931 -213 c145 -74 292 -197 323 -269 21 -51 18 -72 -31 -224
-24 -76 -47 -168 -51 -204 -9 -87 9 -182 51 -269 19 -40 31 -76 28 -81 -3 -6
-1 -7 4 -4 6 4 16 0 23 -8 25 -30 -10 -15 -52 23 -93 82 -128 140 -154 249
-18 79 -12 169 17 272 43 150 12 251 -115 375 -63 61 -106 125 -106 157 0 13
6 12 63 -17z m1867 13 c0 -30 -47 -96 -119 -166 -131 -129 -149 -193 -106
-372 49 -202 25 -331 -82 -457 -42 -49 -102 -97 -110 -88 -2 2 15 33 37 70 88
145 93 312 14 517 -19 49 -37 109 -40 132 -15 105 68 192 316 334 81 46 90 50
90 30z m-2830 -164 c136 -85 229 -135 355 -188 115 -49 153 -72 100 -60 -29 7
-29 7 -9 -9 23 -17 38 -66 21 -66 -6 0 -49 12 -96 26 -124 37 -324 129 -398
183 -36 25 -67 45 -70 43 -15 -10 -91 129 -100 184 l-6 38 54 -45 c30 -26 97
-73 149 -106z m3918 110 c-18 -67 -66 -151 -100 -174 -18 -12 -47 -35 -64 -49
-38 -32 -234 -134 -312 -162 -76 -27 -195 -58 -201 -53 -10 11 21 57 51 76 18
12 24 18 13 14 -11 -3 -33 -9 -50 -11 -31 -6 -3 8 164 80 131 56 368 201 456
280 22 19 43 35 47 36 3 0 2 -17 -4 -37z m-2967 -131 c45 -38 52 -63 12 -37
l-28 18 26 -29 c24 -26 59 -85 59 -99 0 -17 -37 2 -107 53 -114 85 -161 144
-178 221 l-7 34 92 -64 c50 -35 109 -79 131 -97z m2039 131 c-1 -29 -35 -97
-69 -136 -53 -59 -221 -176 -221 -152 0 18 25 61 57 96 l38 42 -35 -17 -35
-18 40 41 c38 38 201 159 218 160 4 1 7 -7 7 -16z m-1050 -101 c0 -5 -7 -17
-15 -28 -10 -13 -14 -44 -15 -96 0 -43 2 -78 5 -78 3 0 14 9 24 19 17 17 25
18 63 10 129 -29 262 -141 296 -249 15 -49 26 -159 14 -141 -8 11 -11 11 -18
-1 -7 -11 -34 -17 -97 -20 -83 -6 -87 -5 -92 16 -13 67 -19 104 -21 125 -1 32
-65 86 -123 106 -76 26 -71 41 -71 -223 0 -239 4 -268 36 -255 21 8 135 -34
200 -73 128 -77 186 -158 214 -302 13 -64 -1 -172 -22 -172 -6 0 -7 7 -3 18 4
9 9 28 11 42 2 14 -7 -5 -20 -43 -50 -136 -177 -250 -311 -277 -33 -7 -67 -15
-75 -18 -8 -3 -19 -6 -25 -6 -5 -1 -13 -44 -16 -96 -5 -88 -5 -90 -7 -27 -2
61 -4 67 -17 53 -11 -10 -15 -36 -15 -85 0 -39 -3 -71 -7 -71 -5 0 -19 -3 -32
-7 l-24 -6 5 89 c3 54 12 102 22 121 15 31 15 33 -5 43 -11 7 -27 9 -36 6 -8
-3 -29 0 -46 7 -18 8 -50 20 -72 26 -55 17 -139 76 -176 122 -17 22 -35 37
-40 34 -5 -4 -6 1 -3 10 4 10 2 15 -6 13 -17 -4 -49 93 -49 150 l-1 42 106 0
c97 0 106 -1 99 -17 -4 -10 -10 -26 -12 -36 -7 -21 22 -101 43 -117 12 -11 13
-7 9 21 -5 31 -5 32 7 14 29 -44 89 -93 132 -108 l46 -16 0 234 c0 228 0 233
20 228 15 -4 20 -14 20 -39 0 -26 4 -32 15 -28 13 5 15 -18 17 -172 l2 -179 6
180 6 180 1 -210 c1 -140 5 -211 12 -213 6 -2 11 1 11 6 0 6 23 18 51 27 76
25 134 86 149 155 11 48 10 62 -7 113 -21 60 -20 69 4 40 11 -15 11 -12 -1 12
-15 32 -55 72 -96 98 -14 9 -88 37 -165 63 -194 64 -257 98 -344 185 -28 28
-40 35 -32 20 9 -15 9 -21 2 -16 -21 12 -59 100 -71 162 -16 80 -2 166 41 248
63 123 154 187 312 220 27 5 27 6 27 90 l0 85 80 0 c44 0 80 -4 80 -8z m-1161
-97 c39 -30 100 -73 136 -96 36 -23 64 -43 61 -46 -2 -3 -14 0 -25 7 -35 18
-24 4 19 -24 54 -35 50 -48 -7 -29 -120 41 -263 167 -263 232 0 17 3 15 79
-44z m2251 45 c0 -66 -137 -188 -270 -240 -28 -11 -50 -16 -50 -11 0 9 38 43
76 69 17 11 17 11 -3 2 -35 -16 -73 -30 -73 -26 0 2 39 26 88 54 48 28 116 75
152 106 67 56 80 64 80 46z m-2340 -113 c30 -14 64 -35 75 -47 11 -12 49 -43
85 -69 36 -25 82 -63 103 -84 l37 -37 -32 4 c-85 11 -201 63 -264 118 -37 33
-78 90 -94 133 -10 27 -12 28 90 -18z m2440 20 c0 -23 -55 -100 -98 -139 -53
-48 -122 -83 -217 -109 -79 -21 -120 -21 -72 1 17 8 26 19 23 27 -3 8 -1 11 4
8 6 -3 10 -2 10 2 0 5 26 24 58 43 31 18 80 55 107 81 45 42 139 96 173 98 6
1 12 -5 12 -12z m-3175 -109 c172 -75 311 -125 443 -159 72 -18 132 -37 132
-41 0 -4 -4 -8 -10 -8 -5 0 -7 -7 -4 -15 22 -56 -255 -17 -461 65 -44 18 -84
33 -90 34 -30 6 -58 33 -99 95 -25 38 -46 72 -46 76 0 9 31 -2 135 -47z m3922
0 c-38 -65 -94 -126 -114 -124 -10 0 -17 -3 -16 -9 1 -5 -8 -11 -20 -12 -12 0
-66 -17 -120 -37 -134 -49 -287 -79 -354 -71 -61 7 -67 20 -20 41 l32 14 -50
-6 c-27 -4 -48 -4 -45 -1 3 2 75 23 160 46 140 38 209 63 480 175 46 19 86 33
88 31 3 -2 -7 -23 -21 -47z m-2982 -196 c47 -21 40 -22 -30 -6 -11 2 6 -8 38
-22 31 -15 57 -30 57 -34 0 -15 -115 -3 -181 19 -98 32 -152 78 -184 155 -8
19 -15 37 -15 40 0 2 60 -26 133 -63 72 -37 155 -77 182 -89z m2245 133 c0
-53 -90 -142 -175 -174 -52 -20 -194 -45 -203 -36 -2 2 25 19 60 39 71 40 72
43 4 20 -70 -24 -67 -11 4 15 58 21 265 125 285 142 14 14 25 11 25 -6z
m-2230 -270 c52 -13 77 -22 55 -20 -132 14 -197 16 -191 7 3 -5 -1 -13 -10
-16 -13 -5 -14 -9 -4 -21 7 -8 16 -12 21 -9 5 3 9 1 9 -4 0 -12 77 -32 119
-32 17 0 31 -4 31 -10 0 -21 -160 -1 -213 26 -29 15 -30 15 -24 -5 5 -19 3
-20 -22 -7 -14 8 -46 31 -70 53 l-45 38 40 12 c67 20 199 15 304 -12z m2223
10 c25 -11 17 -25 -38 -67 -59 -45 -85 -53 -78 -27 5 18 4 18 -40 -1 -53 -24
-152 -36 -186 -23 -20 8 -12 11 47 16 79 8 122 23 122 44 0 8 4 12 9 9 5 -4 7
3 4 14 -5 20 -11 21 -102 16 l-96 -6 70 19 c53 15 94 19 170 17 55 -2 108 -7
118 -11z m-2818 -15 c147 -9 205 -23 205 -46 0 -12 -4 -13 -22 -3 -22 12 -22
11 -5 -8 9 -11 14 -23 10 -26 -10 -10 -168 -8 -247 3 -88 13 -215 56 -241 82
l-20 20 90 -6 c50 -4 153 -11 230 -16z m3405 6 c-23 -22 -137 -66 -209 -82
-75 -16 -287 -19 -296 -4 -3 5 7 16 22 24 l28 15 -34 -6 c-44 -8 -34 11 14 27
31 10 312 34 445 39 38 1 42 -1 30 -13z m-957 -23 c-7 -2 -19 -2 -25 0 -7 3
-2 5 12 5 14 0 19 -2 13 -5z m-1793 -164 l-25 -21 50 7 c44 6 48 6 35 -8 -8
-8 -40 -23 -70 -33 l-55 -18 35 -6 35 -6 -47 -8 c-72 -12 -128 5 -193 57 l-30
25 70 6 c39 4 95 10 125 15 94 14 99 14 70 -10z m1926 0 l115 -12 -23 -25
c-47 -51 -164 -80 -208 -52 -12 8 -10 10 10 10 34 0 15 14 -48 35 -61 19 -61
35 1 28 l42 -5 -30 17 c-43 23 -44 29 -7 22 18 -4 85 -12 148 -18z m-2284 -21
c-5 -5 -47 -20 -93 -34 -59 -17 -71 -22 -39 -18 25 3 69 12 98 19 42 11 52 11
52 0 0 -13 -81 -39 -157 -51 -55 -8 -170 12 -213 39 l-34 21 34 8 c37 7 261
36 320 40 36 3 49 -7 32 -24z m2722 2 c77 -11 144 -24 148 -28 15 -15 -68 -52
-127 -57 -69 -6 -183 9 -233 31 -54 24 -26 27 68 10 116 -22 130 -19 30 8 -91
24 -110 32 -110 47 0 14 71 11 224 -11z m-2238 -139 c-22 -24 -141 -78 -191
-86 l-40 -7 35 36 c19 19 71 55 115 79 l80 43 9 -24 c6 -17 3 -28 -8 -41z
m1607 23 c40 -19 92 -53 117 -74 l45 -39 -35 -1 c-54 0 -220 89 -220 119 0 10
6 9 28 -4 l27 -18 -24 27 c-32 34 -24 33 62 -10z m-1944 -23 c-7 -10 -42 -35
-78 -54 -70 -39 -65 -46 13 -23 37 11 45 12 36 2 -20 -25 -115 -47 -184 -44
-36 2 -66 7 -66 12 0 5 -3 7 -6 3 -4 -3 -20 1 -36 9 -17 9 -28 18 -25 21 6 5
323 90 345 92 9 1 10 -3 1 -18z m2364 -21 c216 -54 214 -53 154 -79 -26 -11
-55 -17 -64 -14 -9 4 -14 2 -10 -3 10 -17 -138 3 -184 25 -28 13 -35 19 -19
17 14 -3 43 -8 65 -11 l40 -6 -51 28 c-62 36 -103 66 -104 76 0 10 -6 11 173
-33z m-1905 -1 c-2 -3 3 -13 10 -21 10 -13 3 -24 -50 -72 -34 -31 -68 -56 -75
-56 -16 0 -16 3 2 48 16 36 92 113 108 109 5 -1 7 -5 5 -8z m1360 -43 c39 -42
61 -90 49 -103 -10 -9 -74 36 -101 71 -26 34 -32 57 -19 69 14 15 32 5 71 -37z
m-76 -107 c48 -58 77 -113 65 -125 -2 -2 -21 12 -41 32 -34 33 -56 71 -88 154
-11 28 -11 28 64 -61z m-1235 19 c-20 -45 -104 -154 -113 -145 -12 12 23 76
73 132 32 36 59 65 60 65 1 0 -8 -23 -20 -52z m-453 0 c24 -10 24 -12 8 -25
-16 -14 -16 -14 3 -8 11 4 29 9 40 12 17 4 17 2 -5 -17 -36 -31 -98 -57 -152
-65 -89 -13 -80 12 31 86 52 34 44 32 75 17z m2169 -17 c47 -33 116 -101 101
-101 -47 1 -152 34 -193 62 l-51 32 43 17 c56 23 53 23 100 -10z m-1955 -11
c-10 -15 -10 -22 0 -32 9 -9 5 -19 -20 -47 l-33 -35 38 28 c40 29 52 30 41 3
-7 -20 -87 -52 -109 -44 -8 4 -15 3 -15 -1 0 -4 -9 -8 -20 -8 -11 0 -19 4 -18
8 7 20 76 98 108 121 43 32 43 32 28 7z m1755 -62 c54 -68 54 -69 5 -64 -24 2
-48 5 -55 5 -19 2 -74 52 -67 62 3 6 23 -6 45 -26 21 -19 42 -35 47 -35 4 0
-4 10 -18 23 -15 12 -35 33 -45 46 -18 22 -18 24 -2 18 12 -5 17 -1 17 14 0
16 3 18 19 9 11 -5 35 -29 54 -52z m-1503 -121 c1 -169 153 -353 346 -417 l64
-22 0 -99 c0 -93 2 -102 25 -124 23 -24 29 -25 154 -25 163 0 161 -2 161 147
l0 102 50 15 c196 58 338 217 356 397 4 38 9 69 12 69 4 0 133 -61 141 -67 14
-10 -122 -221 -232 -358 -97 -122 -326 -359 -425 -439 l-72 -58 -72 57 c-154
122 -452 453 -545 605 -98 159 -113 184 -113 191 0 3 27 16 60 28 32 12 62 26
65 32 11 17 25 -2 25 -34z m-260 -189 c85 -149 208 -314 275 -368 l30 -25 -33
40 c-26 32 -161 233 -196 293 -17 29 5 8 37 -35 217 -292 463 -548 665 -695
l64 -46 99 75 c115 87 396 364 484 477 168 216 182 211 33 -13 -48 -71 -27
-55 44 34 81 101 156 211 192 283 20 39 32 52 42 48 9 -3 38 -6 65 -6 l49 0
-26 -52 c-60 -121 -181 -285 -317 -430 -76 -81 -142 -148 -146 -148 -4 0 -43
-32 -86 -71 -127 -113 -412 -329 -435 -329 -13 0 -75 43 -232 163 -42 32 -162
130 -168 137 -3 3 -41 37 -85 74 -184 158 -383 397 -489 588 l-37 67 43 4 c24
2 53 4 65 5 18 2 30 -13 63 -70z"/>
<path d="M2451 2875 c-49 -29 -62 -42 -93 -100 -25 -46 -31 -165 -10 -200 l11
-20 1 20 c1 13 9 4 26 -28 24 -46 93 -107 121 -107 10 0 13 40 14 208 0 114 2
217 3 230 3 29 -17 28 -73 -3z"/>
<path d="M2891 2727 c-16 -16 -14 -30 4 -23 8 3 15 0 15 -7 0 -12 20 12 20 24
0 13 -28 17 -39 6z"/>
<path d="M2951 2704 c0 -11 3 -14 6 -6 3 7 2 16 -1 19 -3 4 -6 -2 -5 -13z"/>
<path d="M2610 2315 c0 -8 -5 -15 -12 -15 -9 0 -9 -3 -1 -11 6 -6 16 -8 22 -5
14 9 14 46 1 46 -5 0 -10 -7 -10 -15z"/>
<path d="M2815 2150 c-8 -13 -1 -24 14 -19 6 3 7 10 2 18 -6 10 -10 10 -16 1z"/>
<path d="M2865 2110 c-10 -11 -13 -20 -8 -20 13 0 38 29 31 35 -3 3 -13 -4
-23 -15z"/>
<path d="M2188 1923 c7 -3 16 -2 19 1 4 3 -2 6 -13 5 -11 0 -14 -3 -6 -6z"/>
<path d="M2864 1762 c3 -6 2 -13 -4 -17 -16 -10 -12 -25 5 -19 18 7 20 30 3
40 -6 4 -8 3 -4 -4z"/>
<path d="M2333 1738 c-2 -16 1 -18 10 -9 7 7 8 14 1 21 -6 6 -10 2 -11 -12z"/>
<path d="M2795 1740 c-10 -11 -15 -23 -12 -27 4 -3 7 -1 7 5 0 7 5 11 11 10 6
-2 13 5 14 15 4 22 2 21 -20 -3z"/>
<path d="M2387 1713 c-4 -6 1 -14 11 -18 16 -6 16 -7 1 -19 -15 -10 -15 -14
-2 -31 10 -14 14 -15 13 -5 -4 31 1 40 22 40 21 0 21 -1 3 -14 -18 -13 -18
-14 4 -21 13 -4 28 -2 33 3 7 7 19 7 36 1 13 -5 27 -7 30 -4 3 3 -1 5 -9 5
-12 0 -12 2 0 9 11 7 10 10 -5 14 -43 12 -90 21 -103 18 -8 -1 -10 2 -5 10 4
7 3 10 -4 5 -5 -3 -12 -1 -14 6 -3 8 -6 9 -11 1z"/>
<path d="M2740 1700 c-9 -6 -10 -10 -3 -10 6 0 15 5 18 10 8 12 4 12 -15 0z"/>
<path d="M2794 1698 c-4 -7 -3 -8 4 -4 7 4 12 1 12 -9 0 -9 4 -14 10 -10 10 6
2 35 -10 35 -5 0 -12 -5 -16 -12z"/>
<path d="M2560 1681 c0 -6 4 -13 10 -16 6 -3 7 1 4 9 -7 18 -14 21 -14 7z"/>
<path d="M2590 1681 c0 -5 5 -13 10 -16 6 -3 10 -2 10 4 0 5 -4 13 -10 16 -5
3 -10 2 -10 -4z"/>
<path d="M2673 1669 c4 -15 2 -19 -10 -15 -8 3 -18 6 -21 6 -4 0 0 5 8 10 9 6
10 10 3 10 -21 0 -22 -15 -4 -39 17 -23 19 -23 44 -6 36 23 36 55 1 55 -22 0
-25 -4 -21 -21z"/>
<path d="M2713 1624 c-15 -16 -18 -24 -8 -24 27 0 45 12 45 31 0 24 -10 23
-37 -7z"/>
<path d="M2630 1635 c0 -5 5 -17 10 -25 5 -8 10 -10 10 -5 0 6 -5 17 -10 25
-5 8 -10 11 -10 5z"/>
<path d="M2488 1623 c6 -2 18 -2 25 0 6 3 1 5 -13 5 -14 0 -19 -2 -12 -5z"/>
<path d="M2540 1621 c0 -5 5 -13 10 -16 6 -3 10 -2 10 4 0 5 -4 13 -10 16 -5
3 -10 2 -10 -4z"/>
<path d="M2388 1613 c6 -2 18 -2 25 0 6 3 1 5 -13 5 -14 0 -19 -2 -12 -5z"/>
<path d="M2540 1580 c0 -5 5 -10 10 -10 6 0 10 5 10 10 0 6 -4 10 -10 10 -5 0
-10 -4 -10 -10z"/>
<path d="M2571 1544 c0 -11 3 -14 6 -6 3 7 2 16 -1 19 -3 4 -6 -2 -5 -13z"/>
<path d="M2553 1505 c0 -8 4 -15 9 -15 4 0 8 4 8 9 0 6 -4 12 -8 15 -5 3 -9
-1 -9 -9z"/>
<path d="M1784 2288 l-19 -21 28 18 c28 18 33 25 19 25 -5 0 -17 -10 -28 -22z"/>
<path d="M3591 2097 c2 -2 20 -11 39 -20 l35 -17 -24 20 c-13 11 -30 20 -39
20 -8 0 -13 -2 -11 -3z"/>
</g>
</svg>
